<?xml version="1.0" encoding="utf-8"?>
<!-- Generator: Adobe Illustrator 23.0.1, SVG Export Plug-In . SVG Version: 6.00 Build 0)  -->
<svg version="1.1" id="Layer_1" xmlns="http://www.w3.org/2000/svg" xmlns:xlink="http://www.w3.org/1999/xlink" x="0px" y="0px"
	 viewBox="0 0 142 65" style="enable-background:new 0 0 142 65;" xml:space="preserve">
<style type="text/css">
	.st0{fill:#f2c83f;}
	.st1{fill:none;stroke:#f2c83f;}
</style>
<g>
	<path class="st0" d="M20.6,31.4H17l-0.4-1.9c-1.5,1.7-4,2.2-6,2.2c-6.5,0-10.7-4-10.7-8.9s4.2-8.9,10.7-8.9c4.4,0,9.2,1.9,9.7,6.2
		h-5.5c-0.2-1.5-2-2.4-4.2-2.4c-3.6,0-5,2.5-5,5.1s1.4,5.1,5,5.1c2.8,0,4.6-1,4.9-2.6h-3.9V22h9V31.4z"/>
	<path class="st0" d="M26.8,26.1c0.1,1.7,1.3,2.8,3.5,2.8c1.1,0.1,2.3-0.4,2.9-1.4h4.8c-0.9,2.9-4.3,4.1-7.7,4.1
		c-5.1,0-8.5-2.5-8.5-6.6c0-3.8,3.8-6.5,8.4-6.5c5.6,0,8.4,3.4,8.1,7.6H26.8z M33.1,23.9c-0.2-1.5-1.5-2.6-3-2.5
		c-1.6-0.1-3,1-3.3,2.5H33.1z"/>
	<path class="st0" d="M47.2,18.6c4.8,0,8.2,2.9,8.2,6.6s-3.4,6.6-8.2,6.6S39,28.9,39,25.2S42.4,18.6,47.2,18.6z M47.2,28.6
		c2.4,0,3.1-1.9,3.1-3.5s-0.8-3.5-3.1-3.5s-3.1,1.9-3.1,3.5S44.8,28.6,47.2,28.6z"/>
	<path class="st0" d="M56.3,18.9h4.9v2.2h0.1c0.8-1.6,2.5-2.4,4.7-2.4c0.4,0,0.8,0,1.2,0.1v3.7c-0.6-0.2-1.3-0.2-1.9-0.2
		c-2.5,0-3.8,1.4-3.8,3v6.2h-5.1V18.9z"/>
	<path class="st0" d="M83.4,29.9c0,2-0.5,5.9-7.8,5.9c-3.6,0-7-0.7-7.6-4h5.1c0.1,0.5,0.4,0.9,0.9,1.1c0.6,0.2,1.2,0.3,1.9,0.3
		c2.4,0,2.7-1.4,2.7-2.9V29h-0.1c-1,1.2-2.6,1.9-4.1,1.8c-4.7,0-6.8-2.7-6.8-6.2c0-3.3,2.4-6.1,6.8-6.1c1.6-0.1,3.2,0.6,4.2,1.9h0.1
		v-1.6h4.9V29.9z M75.5,21.7c-1.5-0.1-2.9,1-3,2.6c0,0.2,0,0.4,0,0.5c-0.1,1.5,1,2.8,2.5,2.9c0.1,0,0.3,0,0.4,0
		c1.5,0.2,2.9-0.9,3.1-2.4c0-0.2,0-0.4,0-0.5c0.2-1.6-1-3-2.5-3.1C75.9,21.7,75.7,21.7,75.5,21.7z"/>
	<path class="st0" d="M85.4,18.9h5.1v12.5h-5.1V18.9z M90.5,17.4h-5.1v-3.1h5.1V17.4z"/>
	<path class="st0" d="M92,22.8c0.1-1.5,1-2.8,2.4-3.3c1.6-0.6,3.3-0.9,4.9-0.9c3.7,0,7.3,0.6,7.3,4.2v5.5c-0.1,1.1,0.1,2.2,0.6,3.2
		h-5.1c-0.2-0.4-0.3-0.8-0.3-1.2c-1.5,1.1-3.3,1.6-5.2,1.5c-3,0-5.3-1.2-5.3-3.8c0-4.1,5.5-3.7,9.1-4.3c0.9-0.1,1.4-0.4,1.4-1.1
		c0-0.9-1.4-1.3-2.5-1.3c-1.4,0-2.3,0.5-2.6,1.6H92z M98.6,29.2c2.4,0,3.2-1.1,3.1-3.7c-1,0.3-2.1,0.5-3.2,0.7
		c-1.1,0.2-2.1,0.6-2.1,1.6S97.4,29.2,98.6,29.2L98.6,29.2z"/>
	<path class="st0" d="M60.9,38.3h-6.4v13.3h-5.6V38.3h-6.4v-3.8h18.3V38.3z"/>
	<path class="st0" d="M61.5,46.4c0.1,1.7,1.3,2.8,3.5,2.8c1.1,0.1,2.3-0.4,2.9-1.4h4.7c-0.9,2.9-4.3,4.1-7.7,4.1
		c-5.1,0-8.5-2.5-8.5-6.6c0-3.8,3.8-6.5,8.4-6.5c5.6,0,8.4,3.4,8.1,7.6L61.5,46.4z M67.8,44.1c-0.2-1.5-1.5-2.6-3-2.5
		c-1.6-0.1-3,1-3.3,2.5H67.8z"/>
	<path class="st0" d="M84.9,43.7c0-1.1-1.2-1.8-2.5-1.8c-2.9,0-3.3,2-3.3,3.7c-0.1,1.7,1.1,3.1,2.7,3.2c0.1,0,0.2,0,0.3,0
		c1.8,0,2.7-0.8,2.9-2.1H90c-0.4,3.3-3.7,5.3-7.8,5.3c-4.7,0-8.2-2.6-8.2-6.4s3.2-6.8,8.2-6.8c3.9,0,7.3,1.6,7.7,4.9L84.9,43.7z"/>
	<path class="st0" d="M91.1,34.5h5.1v6.4h0.1c0.8-1.3,2.9-2.1,4.7-2.1c5.2,0,5.6,3,5.6,4.8v8h-5.1v-6c0-1.7,0.2-3.4-2.6-3.4
		c-1.4-0.1-2.6,0.9-2.8,2.3c0,0.1,0,0.2,0,0.4v6.8h-5.1L91.1,34.5z"/>
	<path class="st0" d="M126.9,56.6c0.8,0,1.5,0.7,1.5,1.5s-0.7,1.5-1.5,1.5s-1.5-0.7-1.5-1.5l0,0C125.4,57.3,126,56.6,126.9,56.6
		C126.8,56.6,126.9,56.6,126.9,56.6z M126.9,59.5c0.8,0,1.4-0.6,1.4-1.4s-0.6-1.4-1.4-1.4c-0.8,0-1.4,0.6-1.4,1.4c0,0,0,0,0,0
		C125.4,58.9,126.1,59.5,126.9,59.5C126.8,59.5,126.9,59.5,126.9,59.5L126.9,59.5z M126.4,57.2h0.6c0.4,0,0.6,0.2,0.6,0.5
		c0,0.2-0.2,0.4-0.4,0.5c0,0,0,0,0,0l0.5,0.8h-0.1l-0.5-0.8h-0.5V59h-0.1L126.4,57.2z M126.9,58.1c0.2,0,0.6,0,0.6-0.4
		s-0.2-0.4-0.5-0.4h-0.5v0.8L126.9,58.1z"/>
	<polygon class="st1" points="113.4,35.5 118.7,55.3 113.4,55.3 	"/>
	<polygon class="st1" points="124,35.5 118.7,55.3 124,55.3 	"/>
	<polyline class="st1" points="121.3,45.2 118.7,5.5 116.1,45.2 	"/>
	<rect x="113.4" y="57.3" class="st1" width="10.6" height="2"/>
</g>
</svg>
